<svg width="140" height="29" viewBox="0 0 140 29" fill="none" xmlns="http://www.w3.org/2000/svg">
<path d="M8.092 21.224C6.72933 21.224 5.516 20.9907 4.452 20.524C3.388 20.0573 2.548 19.4227 1.932 18.62C1.316 17.7987 0.970667 16.884 0.896 15.876H5.628C5.684 16.4173 5.936 16.856 6.384 17.192C6.832 17.528 7.38267 17.696 8.036 17.696C8.63333 17.696 9.09067 17.584 9.408 17.36C9.744 17.1173 9.912 16.8093 9.912 16.436C9.912 15.988 9.67867 15.6613 9.212 15.456C8.74533 15.232 7.98933 14.9893 6.944 14.728C5.824 14.4667 4.89067 14.196 4.144 13.916C3.39733 13.6173 2.75333 13.16 2.212 12.544C1.67067 11.9093 1.4 11.06 1.4 9.996C1.4 9.1 1.64267 8.288 2.128 7.56C2.632 6.81333 3.36 6.22533 4.312 5.796C5.28267 5.36667 6.43067 5.152 7.756 5.152C9.716 5.152 11.256 5.63733 12.376 6.608C13.5147 7.57867 14.168 8.86667 14.336 10.472H9.912C9.83733 9.93067 9.59467 9.50133 9.184 9.184C8.792 8.86667 8.26933 8.708 7.616 8.708C7.056 8.708 6.62667 8.82 6.328 9.044C6.02933 9.24933 5.88 9.53867 5.88 9.912C5.88 10.36 6.11333 10.696 6.58 10.92C7.06533 11.144 7.812 11.368 8.82 11.592C9.97733 11.8907 10.92 12.1893 11.648 12.488C12.376 12.768 13.0107 13.2347 13.552 13.888C14.112 14.5227 14.4013 15.3813 14.42 16.464C14.42 17.3787 14.1587 18.2 13.636 18.928C13.132 19.6373 12.3947 20.1973 11.424 20.608C10.472 21.0187 9.36133 21.224 8.092 21.224ZM23.2373 7.588C23.7039 6.86 24.3479 6.272 25.1693 5.824C25.9906 5.376 26.9519 5.152 28.0533 5.152C29.3413 5.152 30.5079 5.47867 31.5533 6.132C32.5986 6.78533 33.4199 7.71867 34.0173 8.932C34.6333 10.1453 34.9413 11.5547 34.9413 13.16C34.9413 14.7653 34.6333 16.184 34.0173 17.416C33.4199 18.6293 32.5986 19.572 31.5533 20.244C30.5079 20.8973 29.3413 21.224 28.0533 21.224C26.9706 21.224 26.0093 21 25.1693 20.552C24.3479 20.104 23.7039 19.5253 23.2373 18.816V28.448H18.4493V5.376H23.2373V7.588ZM30.0693 13.16C30.0693 11.9653 29.7333 11.032 29.0613 10.36C28.4079 9.66933 27.5959 9.324 26.6253 9.324C25.6733 9.324 24.8613 9.66933 24.1893 10.36C23.5359 11.0507 23.2093 11.9933 23.2093 13.188C23.2093 14.3827 23.5359 15.3253 24.1893 16.016C24.8613 16.7067 25.6733 17.052 26.6253 17.052C27.5773 17.052 28.3893 16.7067 29.0613 16.016C29.7333 15.3067 30.0693 14.3547 30.0693 13.16ZM45.6652 21.224C44.1345 21.224 42.7532 20.8973 41.5212 20.244C40.3079 19.5907 39.3465 18.6573 38.6372 17.444C37.9465 16.2307 37.6012 14.812 37.6012 13.188C37.6012 11.5827 37.9559 10.1733 38.6652 8.96C39.3745 7.728 40.3452 6.78533 41.5772 6.132C42.8092 5.47867 44.1905 5.152 45.7212 5.152C47.2519 5.152 48.6332 5.47867 49.8652 6.132C51.0972 6.78533 52.0679 7.728 52.7772 8.96C53.4865 10.1733 53.8412 11.5827 53.8412 13.188C53.8412 14.7933 53.4772 16.212 52.7492 17.444C52.0399 18.6573 51.0599 19.5907 49.8092 20.244C48.5772 20.8973 47.1959 21.224 45.6652 21.224ZM45.6652 17.08C46.5799 17.08 47.3545 16.744 47.9892 16.072C48.6425 15.4 48.9692 14.4387 48.9692 13.188C48.9692 11.9373 48.6519 10.976 48.0172 10.304C47.4012 9.632 46.6359 9.296 45.7212 9.296C44.7879 9.296 44.0132 9.632 43.3972 10.304C42.7812 10.9573 42.4732 11.9187 42.4732 13.188C42.4732 14.4387 42.7719 15.4 43.3692 16.072C43.9852 16.744 44.7505 17.08 45.6652 17.08ZM62.2693 7.98C62.8293 7.12133 63.5293 6.44933 64.3693 5.964C65.2093 5.46 66.1426 5.208 67.1693 5.208V10.276H65.8533C64.6586 10.276 63.7626 10.5373 63.1653 11.06C62.568 11.564 62.2693 12.46 62.2693 13.748V21H57.4813V5.376H62.2693V7.98ZM79.2659 16.94V21H76.8299C75.0939 21 73.7405 20.58 72.7699 19.74C71.7992 18.8813 71.3139 17.4907 71.3139 15.568V9.352H69.4099V5.376H71.3139V1.568H76.1019V5.376H79.2379V9.352H76.1019V15.624C76.1019 16.0907 76.2139 16.4267 76.4379 16.632C76.6619 16.8373 77.0352 16.94 77.5579 16.94H79.2659ZM92.6369 5.208C94.4289 5.208 95.8662 5.80533 96.9489 7C98.0315 8.176 98.5729 9.8 98.5729 11.872V21H93.8129V12.516C93.8129 11.4707 93.5422 10.6587 93.0009 10.08C92.4595 9.50133 91.7315 9.212 90.8169 9.212C89.9022 9.212 89.1742 9.50133 88.6329 10.08C88.0915 10.6587 87.8209 11.4707 87.8209 12.516V21H83.0329V0.28H87.8209V7.476C88.3062 6.78533 88.9689 6.23467 89.8089 5.824C90.6489 5.41333 91.5915 5.208 92.6369 5.208ZM118.428 5.376V21H113.64V18.872C113.155 19.5627 112.492 20.1227 111.652 20.552C110.831 20.9627 109.916 21.168 108.908 21.168C107.713 21.168 106.659 20.9067 105.744 20.384C104.829 19.8427 104.12 19.068 103.616 18.06C103.112 17.052 102.86 15.8667 102.86 14.504V5.376H107.62V13.86C107.62 14.9053 107.891 15.7173 108.432 16.296C108.973 16.8747 109.701 17.164 110.616 17.164C111.549 17.164 112.287 16.8747 112.828 16.296C113.369 15.7173 113.64 14.9053 113.64 13.86V5.376H118.428ZM127.755 7.588C128.203 6.86 128.847 6.272 129.687 5.824C130.527 5.376 131.489 5.152 132.571 5.152C133.859 5.152 135.026 5.47867 136.071 6.132C137.117 6.78533 137.938 7.71867 138.535 8.932C139.151 10.1453 139.459 11.5547 139.459 13.16C139.459 14.7653 139.151 16.184 138.535 17.416C137.938 18.6293 137.117 19.572 136.071 20.244C135.026 20.8973 133.859 21.224 132.571 21.224C131.47 21.224 130.509 21.0093 129.687 20.58C128.866 20.132 128.222 19.544 127.755 18.816V21H122.967V0.28H127.755V7.588ZM134.587 13.16C134.587 11.9653 134.251 11.032 133.579 10.36C132.926 9.66933 132.114 9.324 131.143 9.324C130.191 9.324 129.379 9.66933 128.707 10.36C128.054 11.0507 127.727 11.9933 127.727 13.188C127.727 14.3827 128.054 15.3253 128.707 16.016C129.379 16.7067 130.191 17.052 131.143 17.052C132.095 17.052 132.907 16.7067 133.579 16.016C134.251 15.3067 134.587 14.3547 134.587 13.16Z" fill="white"/>
</svg>
