<svg width="229" height="82" viewBox="0 0 229 82" fill="none" xmlns="http://www.w3.org/2000/svg">
<g filter="url(#filter0_d_2061_18433)">
<rect width="229" height="78" rx="5" fill="#4A94FF"/>
<path d="M63.1741 44H60.0781L55.4161 37.484V44H52.6981V31.148H55.4161V37.376L60.0241 31.148H62.9221L58.2421 37.322L63.1741 44ZM63.1719 34.172H66.1059L67.9599 39.698C68.0199 39.878 68.0679 40.058 68.1039 40.238C68.1519 40.418 68.1879 40.604 68.2119 40.796C68.2479 40.988 68.2719 41.192 68.2839 41.408H68.3379C68.3739 41.096 68.4219 40.802 68.4819 40.526C68.5539 40.238 68.6319 39.962 68.7159 39.698L70.5339 34.172H73.4139L69.2559 45.26C69.0039 45.932 68.6739 46.496 68.2659 46.952C67.8699 47.408 67.4079 47.75 66.8799 47.978C66.3519 48.206 65.7759 48.32 65.1519 48.32C64.8519 48.32 64.5879 48.302 64.3599 48.266C64.1439 48.242 63.9519 48.212 63.7839 48.176V46.052C63.9159 46.076 64.0719 46.1 64.2519 46.124C64.4439 46.148 64.6419 46.16 64.8459 46.16C65.2179 46.16 65.5359 46.082 65.7999 45.926C66.0759 45.77 66.3039 45.554 66.4839 45.278C66.6639 45.014 66.8079 44.726 66.9159 44.414L67.0779 43.928L63.1719 34.172ZM83.7519 34.172V44H81.0699V36.188H77.5059V44H74.8239V34.172H83.7519ZM89.1581 38.06C89.1581 38.264 89.1461 38.516 89.1221 38.816C89.1101 39.116 89.0921 39.422 89.0681 39.734C89.0561 40.046 89.0381 40.322 89.0141 40.562C88.9901 40.802 88.9721 40.97 88.9601 41.066L93.4961 34.172H96.7181V44H94.1261V40.076C94.1261 39.752 94.1381 39.398 94.1621 39.014C94.1861 38.618 94.2101 38.252 94.2341 37.916C94.2701 37.568 94.2941 37.304 94.3061 37.124L89.7881 44H86.5661V34.172H89.1581V38.06ZM107.657 36.188H104.435V44H101.753V36.188H98.5312V34.172H107.657V36.188ZM112.062 38.06C112.062 38.264 112.05 38.516 112.026 38.816C112.014 39.116 111.996 39.422 111.972 39.734C111.96 40.046 111.942 40.322 111.918 40.562C111.894 40.802 111.876 40.97 111.864 41.066L116.4 34.172H119.622V44H117.03V40.076C117.03 39.752 117.042 39.398 117.066 39.014C117.09 38.618 117.114 38.252 117.138 37.916C117.174 37.568 117.198 37.304 117.21 37.124L112.692 44H109.47V34.172H112.062V38.06ZM129.822 33.992C130.53 33.992 131.19 34.088 131.802 34.28C132.426 34.46 132.924 34.742 133.296 35.126C133.68 35.51 133.872 36.002 133.872 36.602C133.872 37.19 133.692 37.658 133.332 38.006C132.984 38.354 132.51 38.606 131.91 38.762V38.852C132.33 38.948 132.708 39.086 133.044 39.266C133.38 39.434 133.644 39.668 133.836 39.968C134.04 40.256 134.142 40.646 134.142 41.138C134.142 41.678 133.968 42.182 133.62 42.65C133.284 43.106 132.756 43.478 132.036 43.766C131.328 44.042 130.416 44.18 129.3 44.18C128.772 44.18 128.274 44.156 127.806 44.108C127.338 44.06 126.912 43.994 126.528 43.91C126.144 43.814 125.808 43.7 125.52 43.568V41.354C125.928 41.546 126.426 41.72 127.014 41.876C127.614 42.032 128.25 42.11 128.922 42.11C129.414 42.11 129.852 42.074 130.236 42.002C130.632 41.93 130.944 41.81 131.172 41.642C131.412 41.474 131.532 41.252 131.532 40.976C131.532 40.712 131.43 40.496 131.226 40.328C131.022 40.148 130.716 40.016 130.308 39.932C129.9 39.848 129.378 39.806 128.742 39.806H127.698V37.952H128.688C129.576 37.952 130.26 37.88 130.74 37.736C131.232 37.592 131.478 37.322 131.478 36.926C131.478 36.614 131.322 36.38 131.01 36.224C130.698 36.056 130.188 35.972 129.48 35.972C129.012 35.972 128.502 36.026 127.95 36.134C127.398 36.242 126.876 36.398 126.384 36.602L125.592 34.73C126.156 34.514 126.774 34.34 127.446 34.208C128.118 34.064 128.91 33.992 129.822 33.992ZM140.256 33.974C141.576 33.974 142.584 34.262 143.28 34.838C143.988 35.402 144.342 36.272 144.342 37.448V44H142.47L141.948 42.668H141.876C141.6 43.016 141.312 43.304 141.012 43.532C140.724 43.76 140.388 43.922 140.004 44.018C139.632 44.126 139.17 44.18 138.618 44.18C138.042 44.18 137.52 44.072 137.052 43.856C136.596 43.628 136.236 43.286 135.972 42.83C135.708 42.362 135.576 41.774 135.576 41.066C135.576 40.022 135.942 39.254 136.674 38.762C137.406 38.258 138.504 37.982 139.968 37.934L141.678 37.88V37.448C141.678 36.932 141.54 36.554 141.264 36.314C141 36.074 140.628 35.954 140.148 35.954C139.668 35.954 139.2 36.026 138.744 36.17C138.288 36.302 137.832 36.47 137.376 36.674L136.494 34.856C137.022 34.58 137.604 34.364 138.24 34.208C138.888 34.052 139.56 33.974 140.256 33.974ZM140.634 39.482C139.77 39.506 139.17 39.662 138.834 39.95C138.498 40.238 138.33 40.616 138.33 41.084C138.33 41.492 138.45 41.786 138.69 41.966C138.93 42.134 139.242 42.218 139.626 42.218C140.202 42.218 140.688 42.05 141.084 41.714C141.48 41.366 141.678 40.88 141.678 40.256V39.446L140.634 39.482ZM152.56 33.992C153.664 33.992 154.558 34.424 155.242 35.288C155.926 36.14 156.268 37.4 156.268 39.068C156.268 40.184 156.106 41.126 155.782 41.894C155.458 42.65 155.014 43.22 154.45 43.604C153.886 43.988 153.232 44.18 152.488 44.18C152.02 44.18 151.612 44.12 151.264 44C150.928 43.88 150.64 43.724 150.4 43.532C150.16 43.34 149.95 43.136 149.77 42.92H149.626C149.674 43.148 149.71 43.388 149.734 43.64C149.758 43.88 149.77 44.12 149.77 44.36V48.32H147.088V34.172H149.266L149.644 35.45H149.77C149.95 35.186 150.166 34.946 150.418 34.73C150.67 34.502 150.97 34.322 151.318 34.19C151.678 34.058 152.092 33.992 152.56 33.992ZM151.696 36.134C151.228 36.134 150.856 36.23 150.58 36.422C150.304 36.614 150.1 36.908 149.968 37.304C149.848 37.688 149.782 38.174 149.77 38.762V39.05C149.77 39.686 149.83 40.226 149.95 40.67C150.07 41.102 150.274 41.432 150.562 41.66C150.85 41.888 151.24 42.002 151.732 42.002C152.14 42.002 152.476 41.888 152.74 41.66C153.004 41.432 153.202 41.096 153.334 40.652C153.466 40.208 153.532 39.668 153.532 39.032C153.532 38.072 153.382 37.352 153.082 36.872C152.794 36.38 152.332 36.134 151.696 36.134ZM162.51 33.974C163.83 33.974 164.838 34.262 165.534 34.838C166.242 35.402 166.596 36.272 166.596 37.448V44H164.724L164.202 42.668H164.13C163.854 43.016 163.566 43.304 163.266 43.532C162.978 43.76 162.642 43.922 162.258 44.018C161.886 44.126 161.424 44.18 160.872 44.18C160.296 44.18 159.774 44.072 159.306 43.856C158.85 43.628 158.49 43.286 158.226 42.83C157.962 42.362 157.83 41.774 157.83 41.066C157.83 40.022 158.196 39.254 158.928 38.762C159.66 38.258 160.758 37.982 162.222 37.934L163.932 37.88V37.448C163.932 36.932 163.794 36.554 163.518 36.314C163.254 36.074 162.882 35.954 162.402 35.954C161.922 35.954 161.454 36.026 160.998 36.17C160.542 36.302 160.086 36.47 159.63 36.674L158.748 34.856C159.276 34.58 159.858 34.364 160.494 34.208C161.142 34.052 161.814 33.974 162.51 33.974ZM162.888 39.482C162.024 39.506 161.424 39.662 161.088 39.95C160.752 40.238 160.584 40.616 160.584 41.084C160.584 41.492 160.704 41.786 160.944 41.966C161.184 42.134 161.496 42.218 161.88 42.218C162.456 42.218 162.942 42.05 163.338 41.714C163.734 41.366 163.932 40.88 163.932 40.256V39.446L162.888 39.482ZM172.924 33.992C173.632 33.992 174.292 34.088 174.904 34.28C175.528 34.46 176.026 34.742 176.398 35.126C176.782 35.51 176.974 36.002 176.974 36.602C176.974 37.19 176.794 37.658 176.434 38.006C176.086 38.354 175.612 38.606 175.012 38.762V38.852C175.432 38.948 175.81 39.086 176.146 39.266C176.482 39.434 176.746 39.668 176.938 39.968C177.142 40.256 177.244 40.646 177.244 41.138C177.244 41.678 177.07 42.182 176.722 42.65C176.386 43.106 175.858 43.478 175.138 43.766C174.43 44.042 173.518 44.18 172.402 44.18C171.874 44.18 171.376 44.156 170.908 44.108C170.44 44.06 170.014 43.994 169.63 43.91C169.246 43.814 168.91 43.7 168.622 43.568V41.354C169.03 41.546 169.528 41.72 170.116 41.876C170.716 42.032 171.352 42.11 172.024 42.11C172.516 42.11 172.954 42.074 173.338 42.002C173.734 41.93 174.046 41.81 174.274 41.642C174.514 41.474 174.634 41.252 174.634 40.976C174.634 40.712 174.532 40.496 174.328 40.328C174.124 40.148 173.818 40.016 173.41 39.932C173.002 39.848 172.48 39.806 171.844 39.806H170.8V37.952H171.79C172.678 37.952 173.362 37.88 173.842 37.736C174.334 37.592 174.58 37.322 174.58 36.926C174.58 36.614 174.424 36.38 174.112 36.224C173.8 36.056 173.29 35.972 172.582 35.972C172.114 35.972 171.604 36.026 171.052 36.134C170.5 36.242 169.978 36.398 169.486 36.602L168.694 34.73C169.258 34.514 169.876 34.34 170.548 34.208C171.22 34.064 172.012 33.992 172.924 33.992Z" fill="white"/>
</g>
<defs>
<filter id="filter0_d_2061_18433" x="0" y="0" width="229" height="82" filterUnits="userSpaceOnUse" color-interpolation-filters="sRGB">
<feFlood flood-opacity="0" result="BackgroundImageFix"/>
<feColorMatrix in="SourceAlpha" type="matrix" values="0 0 0 0 0 0 0 0 0 0 0 0 0 0 0 0 0 0 127 0" result="hardAlpha"/>
<feOffset dy="4"/>
<feColorMatrix type="matrix" values="0 0 0 0 0.17417 0 0 0 0 0.399371 0 0 0 0 0.725 0 0 0 1 0"/>
<feBlend mode="normal" in2="BackgroundImageFix" result="effect1_dropShadow_2061_18433"/>
<feBlend mode="normal" in="SourceGraphic" in2="effect1_dropShadow_2061_18433" result="shape"/>
</filter>
</defs>
</svg>
